#Comment line ignore any data following # character 
#Hierarchical Translation and Rotation (.htr) file 
[Header]	
#Header keywords are followed by a single value 
FileType HTR		#Single word string
DataType HTRS		#Translation followed by rotation and scale data
FileVersion 1		#integer
NumSegments 84		#integer
NumFrames 2		#integer
DataFrameRate 30		#integer, data frame rate in this file
EulerRotationOrder ZYX
CalibrationUnits mm
RotationUnits Degrees
GlobalAxisofGravity Y
BoneLengthAxis Y
ScaleFactor 1.00
[SegmentNames&Hierarchy]
#CHILD	PARENT
MASTER GLOBAL
root MASTER
chest root
L_mid_tent01 root
R_mid_tent01 root
spine01 root
Bip01_Neck chest
L_humerus chest
R_humerus chest
weapon_bone chest
Bip01_Head Bip01_Neck
eye_left_bone Bip01_Head
eye_right_bone Bip01_Head
L_forearm L_humerus
L_front_hand L_forearm
L_weapon_bone L_forearm
L_front_hand01_01 L_front_hand
L_front_hand02_01 L_front_hand
L_front_hand03_01 L_front_hand
L_front_hand01_02 L_front_hand01_01
L_front_hand02_02 L_front_hand02_01
L_front_hand03_02 L_front_hand03_01
R_forearm R_humerus
R_front_hand R_forearm
R_weapon_bone R_forearm
R_front_hand01_01 R_front_hand
R_front_hand02_01 R_front_hand
R_front_hand03_01 R_front_hand
R_front_hand01_02 R_front_hand01_01
R_front_hand02_02 R_front_hand02_01
R_front_hand03_02 R_front_hand03_01
null_rope01_connect L_mid_tent01
Rope1_Seg01 null_rope01_connect
Rope1_Seg02 Rope1_Seg01
Rope1_Seg03 Rope1_Seg02
Rope1_Seg04 Rope1_Seg03
Rope1_Seg05 Rope1_Seg04
Rope1_Seg06 Rope1_Seg05
Rope1_Seg07 Rope1_Seg06
Rope1_Seg09 Rope1_Seg07
L_mid_hand01 Rope1_Seg09
L_mid_hand02 Rope1_Seg09
L_mid_hand03 Rope1_Seg09
null_rope02_connect R_mid_tent01
Rope2_Seg01 null_rope02_connect
Rope2_Seg02 Rope2_Seg01
Rope2_Seg03 Rope2_Seg02
Rope2_Seg04 Rope2_Seg03
Rope2_Seg05 Rope2_Seg04
Rope2_Seg06 Rope2_Seg05
Rope2_Seg07 Rope2_Seg06
Rope2_Seg09 Rope2_Seg07
R_mid_hand01 Rope2_Seg09
R_mid_hand02 Rope2_Seg09
R_mid_hand03 Rope2_Seg09
spine02 spine01
spine03 spine02
pelvis spine03
null_rope03_connect pelvis
null_rope04_connect pelvis
Rope3_Seg01 null_rope03_connect
Rope3_Seg02 Rope3_Seg01
Rope3_Seg03 Rope3_Seg02
Rope3_Seg04 Rope3_Seg03
Rope3_Seg05 Rope3_Seg04
Rope3_Seg06 Rope3_Seg05
Rope3_Seg07 Rope3_Seg06
Rope3_Seg08 Rope3_Seg07
Rope3_Seg09 Rope3_Seg08
R_rear_hand01 Rope3_Seg09
R_rear_hand02 Rope3_Seg09
R_rear_hand03 Rope3_Seg09
Rope4_Seg01 null_rope04_connect
Rope4_Seg02 Rope4_Seg01
Rope4_Seg03 Rope4_Seg02
Rope4_Seg04 Rope4_Seg03
Rope4_Seg05 Rope4_Seg04
Rope4_Seg06 Rope4_Seg05
Rope4_Seg07 Rope4_Seg06
Rope4_Seg08 Rope4_Seg07
Rope4_Seg09 Rope4_Seg08
L_rear_hand01 Rope4_Seg09
L_rear_hand02 Rope4_Seg09
L_rear_hand03 Rope4_Seg09
[BasePosition]
#SegmentName Tx, Ty, Tz, Rx, Ry, Rz, BoneLength
MASTER 0.000000 0.000000 0.000000 -90.000000 0.000000 0.000000 10.000000 
root 0.000000 0.000000 0.000000 0.000000 0.000000 0.000000 10.000000 
chest 0.000000 0.000000 0.000000 0.000000 0.000000 0.000000 10.000000 
L_mid_tent01 0.000000 0.000000 0.000000 0.000000 0.000000 0.000000 10.000000 
R_mid_tent01 0.000000 0.000000 0.000000 0.000000 0.000000 0.000000 10.000000 
spine01 0.000000 0.000000 0.000000 0.000000 0.000000 0.000000 10.000000 
Bip01_Neck 0.000000 0.000000 0.000000 0.000000 0.000000 0.000000 10.000000 
L_humerus 0.000000 0.000000 0.000000 0.000000 0.000000 0.000000 10.000000 
R_humerus 0.000000 0.000000 0.000000 0.000000 0.000000 0.000000 10.000000 
weapon_bone 0.000000 0.000000 0.000000 0.000000 0.000000 0.000000 10.000000 
Bip01_Head 0.000000 0.000000 0.000000 0.000000 0.000000 0.000000 10.000000 
eye_left_bone 0.000000 0.000000 0.000000 0.000000 0.000000 0.000000 10.000000 
eye_right_bone 0.000000 0.000000 0.000000 0.000000 0.000000 0.000000 10.000000 
L_forearm 0.000000 0.000000 0.000000 0.000000 0.000000 0.000000 10.000000 
L_front_hand 0.000000 0.000000 0.000000 0.000000 0.000000 0.000000 10.000000 
L_weapon_bone 0.000000 0.000000 0.000000 0.000000 0.000000 0.000000 10.000000 
L_front_hand01_01 0.000000 0.000000 0.000000 0.000000 0.000000 0.000000 10.000000 
L_front_hand02_01 0.000000 0.000000 0.000000 0.000000 0.000000 0.000000 10.000000 
L_front_hand03_01 0.000000 0.000000 0.000000 0.000000 0.000000 0.000000 10.000000 
L_front_hand01_02 0.000000 0.000000 0.000000 0.000000 0.000000 0.000000 10.000000 
L_front_hand02_02 0.000000 0.000000 0.000000 0.000000 0.000000 0.000000 10.000000 
L_front_hand03_02 0.000000 0.000000 0.000000 0.000000 0.000000 0.000000 10.000000 
R_forearm 0.000000 0.000000 0.000000 0.000000 0.000000 0.000000 10.000000 
R_front_hand 0.000000 0.000000 0.000000 0.000000 0.000000 0.000000 10.000000 
R_weapon_bone 0.000000 0.000000 0.000000 0.000000 0.000000 0.000000 10.000000 
R_front_hand01_01 0.000000 0.000000 0.000000 0.000000 0.000000 0.000000 10.000000 
R_front_hand02_01 0.000000 0.000000 0.000000 0.000000 0.000000 0.000000 10.000000 
R_front_hand03_01 0.000000 0.000000 0.000000 0.000000 0.000000 0.000000 10.000000 
R_front_hand01_02 0.000000 0.000000 0.000000 0.000000 0.000000 0.000000 10.000000 
R_front_hand02_02 0.000000 0.000000 0.000000 0.000000 0.000000 0.000000 10.000000 
R_front_hand03_02 0.000000 0.000000 0.000000 0.000000 0.000000 0.000000 10.000000 
null_rope01_connect 0.000000 0.000000 0.000000 0.000000 0.000000 0.000000 10.000000 
Rope1_Seg01 0.000000 0.000000 0.000000 0.000000 0.000000 0.000000 10.000000 
Rope1_Seg02 0.000000 0.000000 0.000000 0.000000 0.000000 0.000000 10.000000 
Rope1_Seg03 0.000000 0.000000 0.000000 0.000000 0.000000 0.000000 10.000000 
Rope1_Seg04 0.000000 0.000000 0.000000 0.000000 0.000000 0.000000 10.000000 
Rope1_Seg05 0.000000 0.000000 0.000000 0.000000 0.000000 0.000000 10.000000 
Rope1_Seg06 0.000000 0.000000 0.000000 0.000000 0.000000 0.000000 10.000000 
Rope1_Seg07 0.000000 0.000000 0.000000 0.000000 0.000000 0.000000 10.000000 
Rope1_Seg09 0.000000 0.000000 0.000000 0.000000 0.000000 0.000000 10.000000 
L_mid_hand01 0.000000 0.000000 0.000000 0.000000 0.000000 0.000000 10.000000 
L_mid_hand02 0.000000 0.000000 0.000000 0.000000 0.000000 0.000000 10.000000 
L_mid_hand03 0.000000 0.000000 0.000000 0.000000 0.000000 0.000000 10.000000 
null_rope02_connect 0.000000 0.000000 0.000000 0.000000 0.000000 0.000000 10.000000 
Rope2_Seg01 0.000000 0.000000 0.000000 0.000000 0.000000 0.000000 10.000000 
Rope2_Seg02 0.000000 0.000000 0.000000 0.000000 0.000000 0.000000 10.000000 
Rope2_Seg03 0.000000 0.000000 0.000000 0.000000 0.000000 0.000000 10.000000 
Rope2_Seg04 0.000000 0.000000 0.000000 0.000000 0.000000 0.000000 10.000000 
Rope2_Seg05 0.000000 0.000000 0.000000 0.000000 0.000000 0.000000 10.000000 
Rope2_Seg06 0.000000 0.000000 0.000000 0.000000 0.000000 0.000000 10.000000 
Rope2_Seg07 0.000000 0.000000 0.000000 0.000000 0.000000 0.000000 10.000000 
Rope2_Seg09 0.000000 0.000000 0.000000 0.000000 0.000000 0.000000 10.000000 
R_mid_hand01 0.000000 0.000000 0.000000 0.000000 0.000000 0.000000 10.000000 
R_mid_hand02 0.000000 0.000000 0.000000 0.000000 0.000000 0.000000 10.000000 
R_mid_hand03 0.000000 0.000000 0.000000 0.000000 0.000000 0.000000 10.000000 
spine02 0.000000 0.000000 0.000000 0.000000 0.000000 0.000000 10.000000 
spine03 0.000000 0.000000 0.000000 0.000000 0.000000 0.000000 10.000000 
pelvis 0.000000 0.000000 0.000000 0.000000 0.000000 0.000000 10.000000 
null_rope03_connect 0.000000 0.000000 0.000000 0.000000 0.000000 0.000000 10.000000 
null_rope04_connect 0.000000 0.000000 0.000000 0.000000 0.000000 0.000000 10.000000 
Rope3_Seg01 0.000000 0.000000 0.000000 0.000000 0.000000 0.000000 10.000000 
Rope3_Seg02 0.000000 0.000000 0.000000 0.000000 0.000000 0.000000 10.000000 
Rope3_Seg03 0.000000 0.000000 0.000000 0.000000 0.000000 0.000000 10.000000 
Rope3_Seg04 0.000000 0.000000 0.000000 0.000000 0.000000 0.000000 10.000000 
Rope3_Seg05 0.000000 0.000000 0.000000 0.000000 0.000000 0.000000 10.000000 
Rope3_Seg06 0.000000 0.000000 0.000000 0.000000 0.000000 0.000000 10.000000 
Rope3_Seg07 0.000000 0.000000 0.000000 0.000000 0.000000 0.000000 10.000000 
Rope3_Seg08 0.000000 0.000000 0.000000 0.000000 0.000000 0.000000 10.000000 
Rope3_Seg09 0.000000 0.000000 0.000000 0.000000 0.000000 0.000000 10.000000 
R_rear_hand01 0.000000 0.000000 0.000000 0.000000 0.000000 0.000000 10.000000 
R_rear_hand02 0.000000 0.000000 0.000000 0.000000 0.000000 0.000000 10.000000 
R_rear_hand03 0.000000 0.000000 0.000000 0.000000 0.000000 0.000000 10.000000 
Rope4_Seg01 0.000000 0.000000 0.000000 0.000000 0.000000 0.000000 10.000000 
Rope4_Seg02 0.000000 0.000000 0.000000 0.000000 0.000000 0.000000 10.000000 
Rope4_Seg03 0.000000 0.000000 0.000000 0.000000 0.000000 0.000000 10.000000 
Rope4_Seg04 0.000000 0.000000 0.000000 0.000000 0.000000 0.000000 10.000000 
Rope4_Seg05 0.000000 0.000000 0.000000 0.000000 0.000000 0.000000 10.000000 
Rope4_Seg06 0.000000 0.000000 0.000000 0.000000 0.000000 0.000000 10.000000 
Rope4_Seg07 0.000000 0.000000 0.000000 0.000000 0.000000 0.000000 10.000000 
Rope4_Seg08 0.000000 0.000000 0.000000 0.000000 0.000000 0.000000 10.000000 
Rope4_Seg09 0.000000 0.000000 0.000000 0.000000 0.000000 0.000000 10.000000 
L_rear_hand01 0.000000 0.000000 0.000000 0.000000 0.000000 0.000000 10.000000 
L_rear_hand02 0.000000 0.000000 0.000000 0.000000 0.000000 0.000000 10.000000 
L_rear_hand03 0.000000 0.000000 0.000000 0.000000 0.000000 0.000000 10.000000 
#Beginning of Data. Separated by tabs
#Fr	Tx	Ty	Tz	Rx	Ry	Rz	SF
[MASTER]
24 0.000000 0.000000 0.000000 0.001660 0.001660 0.001660 0.000000
25 0.000000 0.000000 0.000000 0.001660 0.001660 0.001660 0.000000
[root]
24 97.210213 -68.433586 1431.568970 -110.583580 19.944782 -89.326439 1436.496704
25 99.676407 -66.911224 1431.553101 -110.660210 19.573101 -89.201485 1436.578125
[chest]
24 -86.836609 -33.005978 -30.127243 11.164043 -8.786409 179.237610 97.660851
25 -86.836609 -33.005978 -30.127243 11.832188 -8.700348 178.830765 97.660851
[L_mid_tent01]
24 27.299509 22.177580 -249.918289 -8.160435 20.528399 69.707016 252.381180
25 27.299507 22.177580 -249.918289 -7.927770 20.574841 70.344841 252.381180
[R_mid_tent01]
24 23.228794 24.509907 226.238495 -176.007172 -18.132828 65.470680 228.744751
25 23.228794 24.509907 226.238495 -175.999664 -18.320053 65.458534 228.744751
[spine01]
24 -0.361383 -0.195265 0.000000 -0.000001 -0.000007 22.052340 0.410763
25 -0.361383 -0.195265 0.000000 -0.000001 -0.000007 22.052340 0.410763
[Bip01_Neck]
24 165.484543 71.581718 0.000119 175.896118 1.177290 24.871183 180.302734
25 165.484543 71.581718 0.000119 175.896118 1.177290 24.871183 180.302734
[L_humerus]
24 -13.983130 -135.272980 -120.471481 -168.517593 36.033752 -113.483025 181.680161
25 -13.983130 -135.272980 -120.471481 -168.517593 36.033752 -113.483025 181.680161
[R_humerus]
24 -13.983309 -135.273102 125.287651 -179.585693 -30.057919 -122.041435 184.909012
25 -13.983309 -135.273102 125.287651 -179.582443 -31.019438 -122.046944 184.909012
[weapon_bone]
24 235.964890 -300.705902 0.000000 0.000000 -89.951546 -128.212341 382.234833
25 235.964890 -300.705902 0.000000 0.000000 -89.951546 -128.212341 382.234833
[Bip01_Head]
24 189.519897 179.130264 22.124889 -23.626308 5.787232 14.654977 261.715393
25 189.519897 179.130264 22.124891 -23.626308 5.787232 14.654977 261.715393
[eye_left_bone]
24 -24.626970 125.451866 -64.772606 0.000000 -90.000000 -99.840431 143.318359
25 -24.626970 125.451866 -64.772606 0.000000 -90.000000 -99.840431 143.318359
[eye_right_bone]
24 -24.626970 125.451866 64.327362 0.000000 -89.965736 80.156380 143.117676
25 -24.626970 125.451866 64.327362 0.000000 -89.965736 80.156380 143.117676
[L_forearm]
24 322.776093 0.000000 -0.000119 0.000017 0.002347 -89.149834 322.776093
25 322.776093 0.000000 -0.000119 0.000017 0.002347 -89.149834 322.776093
[L_front_hand]
24 241.149185 -0.042021 -3.300071 67.650658 -2.246463 -0.020837 241.171753
25 241.149185 -0.042021 -3.300071 67.252106 -2.241044 -0.021260 241.171753
[L_weapon_bone]
24 156.183838 0.000000 0.000000 0.000014 0.000007 0.000001 156.183838
25 156.183838 0.000000 0.000000 0.000014 0.000007 0.000001 156.183838
[L_front_hand01_01]
24 86.095154 20.947098 -0.655860 -0.366594 -0.477154 75.385574 88.609184
25 86.095154 20.947098 -0.655860 -0.366594 -0.477154 75.385574 88.609184
[L_front_hand02_01]
24 86.935165 -11.437475 24.513514 154.399796 -59.883835 -61.369587 91.046425
25 86.935165 -11.437475 24.513514 154.399796 -59.883835 -61.369587 91.046425
[L_front_hand03_01]
24 86.637497 -14.123976 -20.424902 -153.913879 58.118130 -62.702892 90.126129
25 86.637497 -14.123976 -20.424902 -153.913849 58.118130 -62.702866 90.126129
[L_front_hand01_02]
24 71.020905 -0.000179 0.000030 0.000334 -0.002323 -106.379684 71.020905
25 71.020905 -0.000179 0.000030 0.000334 -0.002323 -106.379684 71.020905
[L_front_hand02_02]
24 71.020927 -0.000119 0.000060 0.000334 -0.002323 -106.379684 71.020927
25 71.020927 -0.000119 0.000060 0.000334 -0.002323 -106.379684 71.020927
[L_front_hand03_02]
24 71.020905 -0.000060 0.000060 0.000334 -0.002323 -106.379684 71.020905
25 71.020905 -0.000060 0.000060 0.000334 -0.002323 -106.379684 71.020905
[R_forearm]
24 322.776428 -0.000060 0.000030 0.213197 0.007525 -93.425262 322.776428
25 322.776428 -0.000060 0.000030 0.213197 0.007525 -93.425262 322.776428
[R_front_hand]
24 238.847015 -0.006795 2.210259 -0.270529 1.703932 2.322530 238.857239
25 238.847015 -0.006795 2.210259 -0.270529 1.703932 2.322531 238.857239
[R_weapon_bone]
24 155.664093 0.002503 -0.000030 0.003487 0.001180 -90.988930 155.664078
25 155.664093 0.002503 -0.000030 0.003487 0.001180 -90.988930 155.664078
[R_front_hand01_01]
24 87.624611 14.231146 22.918642 -154.633484 -59.950619 61.746037 91.683487
25 87.624611 14.231146 22.918642 -154.633499 -59.950619 61.746044 91.683487
[R_front_hand02_01]
24 89.356956 14.367283 -19.491137 154.602661 58.302849 63.744389 92.579636
25 89.356956 14.367283 -19.491137 154.602661 58.302849 63.744389 92.579636
[R_front_hand03_01]
24 87.286232 -22.307278 -0.143439 0.162155 -0.423168 -75.767921 90.091743
25 87.286232 -22.307278 -0.143439 0.162155 -0.423168 -75.767921 90.091743
[R_front_hand01_02]
24 71.020905 0.000060 0.000119 0.002323 -0.000334 106.381714 71.020905
25 71.020905 0.000060 0.000119 0.002323 -0.000334 106.381714 71.020905
[R_front_hand02_02]
24 71.020844 -0.000030 -0.000119 0.002323 -0.000334 106.381714 71.020836
25 71.020844 -0.000030 -0.000119 0.002323 -0.000334 106.381714 71.020836
[R_front_hand03_02]
24 71.020905 0.000000 0.000030 0.002323 -0.000334 106.381714 71.020905
25 71.020905 0.000000 0.000030 0.002323 -0.000334 106.381714 71.020905
[null_rope01_connect]
24 328.732483 0.000000 -0.000238 158.291382 -47.153641 -159.319489 328.732483
25 328.732483 0.000000 -0.000238 158.532257 -47.077610 -159.737259 328.732483
[Rope1_Seg01]
24 0.000000 0.000000 0.000000 89.962677 80.918961 104.030533 0.000000
25 0.000000 0.000000 0.000000 73.502808 82.029671 86.501381 0.000000
[Rope1_Seg02]
24 139.999863 -0.000179 0.000000 0.528357 4.081359 -7.477458 139.999863
25 139.999863 -0.000179 0.000000 0.352253 4.301198 -7.161183 139.999863
[Rope1_Seg03]
24 139.999924 0.000060 -0.000060 1.449334 5.834790 -11.100153 139.999924
25 139.999924 0.000060 -0.000060 1.010096 6.259406 -10.732382 139.999924
[Rope1_Seg04]
24 139.999924 -0.000060 -0.000119 5.584201 12.025232 -21.416956 139.999924
25 139.999924 -0.000060 -0.000119 3.079380 13.595712 -21.172447 139.999924
[Rope1_Seg05]
24 139.999832 0.000119 -0.000060 18.288094 1.661450 -11.741434 139.999832
25 139.999832 0.000119 -0.000060 18.005730 2.652632 -12.049146 139.999832
[Rope1_Seg06]
24 139.999954 0.000119 -0.000060 -3.483328 -4.904765 8.006767 139.999954
25 139.999954 0.000119 -0.000060 -1.746023 -6.657587 8.508843 139.999954
[Rope1_Seg07]
24 139.999985 0.000060 0.000000 1.011441 -2.265718 1.599367 139.999985
25 139.999985 0.000060 0.000000 1.360565 -2.825698 1.877944 139.999985
[Rope1_Seg09]
24 121.602913 0.000119 -0.000089 -89.793175 -1.359789 0.847147 121.602913
25 121.602913 0.000119 -0.000089 -89.793175 -1.359789 0.847147 121.602913
[L_mid_hand01]
24 103.859421 1.038730 8.195221 106.855484 -31.239275 -9.461397 104.187431
25 103.859421 1.038730 8.195221 106.855484 -31.239275 -9.461397 104.187431
[L_mid_hand02]
24 105.572853 -4.139662 -10.864139 -142.331345 25.752670 -28.774628 106.211075
25 105.572853 -4.139662 -10.864139 -142.331345 25.752670 -28.774628 106.211075
[L_mid_hand03]
24 104.641464 17.579376 -3.913581 -16.122810 9.734291 34.223598 106.179977
25 104.641464 17.579376 -3.913581 -16.122810 9.734291 34.223598 106.179977
[null_rope02_connect]
24 328.732849 0.000179 -0.000119 -79.082787 84.881325 97.644562 328.732849
25 328.732849 0.000179 -0.000119 -80.267029 84.740738 96.099457 328.732849
[Rope2_Seg01]
24 0.000076 0.000111 0.000153 55.636150 81.597061 170.052750 0.000203
25 0.000076 0.000111 0.000153 57.243046 82.234894 171.638626 0.000203
[Rope2_Seg02]
24 139.999741 -0.000060 -0.000119 -2.722796 13.549674 6.796814 139.999756
25 139.999741 -0.000060 -0.000119 -2.808789 13.215171 6.777619 139.999756
[Rope2_Seg03]
24 140.000107 0.000030 0.000000 -7.552490 18.436708 11.367164 140.000107
25 140.000107 0.000030 0.000000 -7.558596 18.019510 11.371977 140.000107
[Rope2_Seg04]
24 139.999802 0.000000 -0.000060 -11.406239 14.789865 12.493253 139.999802
25 139.999802 0.000000 -0.000060 -11.397430 14.676929 12.660499 139.999802
[Rope2_Seg05]
24 139.999985 -0.000060 0.000119 0.257017 1.339333 -1.004343 139.999985
25 139.999985 -0.000060 0.000119 0.452738 1.282657 -1.239697 139.999985
[Rope2_Seg06]
24 139.999893 -0.000030 -0.000119 0.669086 0.522752 -1.147682 139.999893
25 139.999893 -0.000030 -0.000119 0.847031 0.456757 -1.345215 139.999893
[Rope2_Seg07]
24 139.999893 0.000060 -0.000060 -0.629117 0.982406 0.268292 139.999893
25 139.999893 0.000060 -0.000060 -0.526189 0.942125 0.165493 139.999893
[Rope2_Seg09]
24 121.338966 0.000089 -0.000060 33.793236 -1.359788 -0.847141 121.338966
25 121.338966 0.000089 -0.000060 33.793236 -1.359788 -0.847141 121.338966
[R_mid_hand01]
24 104.680779 11.144459 -10.335981 -41.523792 25.424656 28.595957 105.778534
25 104.680779 11.144459 -10.335981 -41.523792 25.424656 28.595957 105.778534
[R_mid_hand02]
24 104.070427 2.443552 8.231699 72.847389 -32.746803 10.013901 104.424065
25 104.070427 2.443552 8.231699 72.847389 -32.746803 10.013901 104.424065
[R_mid_hand03]
24 106.028137 -11.221827 -5.996406 -167.901306 10.259192 -37.009720 106.788818
25 106.028137 -11.221827 -5.996406 -167.901306 10.259192 -37.009720 106.788818
[spine02]
24 129.756927 0.001550 0.000119 -0.245322 -4.052060 -4.355547 129.756927
25 129.756927 0.001550 0.000119 -0.245322 -4.052060 -4.355547 129.756927
[spine03]
24 78.613846 0.087372 -4.898873 0.207411 -2.089716 -0.432471 78.766380
25 78.613846 0.087372 -4.898873 0.207412 -2.089717 -0.432471 78.766380
[pelvis]
24 169.435242 0.051022 0.000000 -0.010007 -0.191417 -1.897554 169.435257
25 169.435242 0.051022 0.000000 -0.010007 -0.191417 -1.897554 169.435257
[null_rope03_connect]
24 -1.257226 -2.466202 137.391083 140.308090 -69.935120 -86.631737 137.418976
25 -1.257226 -2.466202 137.391083 140.486847 -69.782593 -86.422226 137.418976
[null_rope04_connect]
24 -1.259640 -2.480268 -137.844437 140.308090 -69.935120 -86.631737 137.872513
25 -1.259640 -2.480268 -137.844437 140.486847 -69.782593 -86.422226 137.872513
[Rope3_Seg01]
24 0.000000 0.000000 0.000000 -169.105637 65.864227 -108.719559 0.000000
25 0.000000 0.000000 0.000000 -167.493774 66.321136 -106.870293 0.000000
[Rope3_Seg02]
24 139.999924 -0.000119 0.000060 5.348115 9.530659 -6.427333 139.999924
25 139.999924 -0.000119 0.000060 4.998402 9.205416 -6.408596 139.999924
[Rope3_Seg03]
24 139.999924 -0.000119 0.000119 9.259451 18.373392 -7.611823 139.999924
25 139.999924 -0.000119 0.000119 8.665021 18.085712 -7.856981 139.999924
[Rope3_Seg04]
24 139.999924 0.000119 0.000000 -0.754927 -6.380349 -5.461677 139.999924
25 139.999924 0.000119 0.000000 -0.594028 -5.870589 -5.298419 139.999924
[Rope3_Seg05]
24 139.999924 -0.000238 0.000060 -5.080245 -26.048792 0.588183 139.999924
25 139.999924 -0.000238 0.000060 -5.137547 -25.848330 1.359158 139.999924
[Rope3_Seg06]
24 139.999893 -0.000119 -0.000060 0.206593 -9.002077 -1.279679 139.999893
25 139.999893 -0.000119 -0.000060 0.170897 -8.893557 -0.964077 139.999893
[Rope3_Seg07]
24 139.999771 0.000060 -0.000119 0.691592 -5.228107 -0.797310 139.999771
25 139.999771 0.000060 -0.000119 0.663037 -5.135221 -0.617212 139.999771
[Rope3_Seg08]
24 139.999985 -0.000060 0.000000 0.745068 -3.022778 -0.423698 139.999985
25 139.999985 -0.000060 0.000000 0.722476 -2.969057 -0.323807 139.999985
[Rope3_Seg09]
24 90.185997 -0.000179 -0.000060 89.793228 -1.359877 -0.847183 90.185997
25 90.185997 -0.000179 -0.000060 89.793228 -1.359877 -0.847183 90.185997
[R_rear_hand01]
24 103.366196 -6.073594 -10.757982 -161.551193 16.666374 -30.088671 104.101845
25 103.366196 -6.073594 -10.757982 -161.551193 16.666374 -30.088671 104.101845
[R_rear_hand02]
24 100.509819 12.039542 -7.992327 -34.280552 19.289745 28.875523 101.543350
25 100.509819 12.039542 -7.992327 -34.280552 19.289745 28.875523 101.543350
[R_rear_hand03]
24 101.539970 5.215704 5.435467 83.366440 -30.933914 7.284830 101.819031
25 101.539970 5.215704 5.435467 83.366440 -30.933914 7.284830 101.819031
[Rope4_Seg01]
24 0.000010 0.000038 -0.000114 8.145752 72.570938 -155.290817 0.000121
25 0.000010 0.000038 -0.000114 9.934794 72.240334 -153.387024 0.000121
[Rope4_Seg02]
24 139.999985 0.000060 0.000119 -0.569810 -2.438627 8.423643 139.999985
25 139.999985 0.000060 0.000119 -0.556251 -2.080384 8.314409 139.999985
[Rope4_Seg03]
24 139.999924 0.000000 -0.000238 -1.119580 -3.248430 10.512951 139.999924
25 139.999924 0.000000 -0.000238 -1.132607 -2.766660 10.328461 139.999924
[Rope4_Seg04]
24 139.999985 0.000000 0.000119 -1.544420 -3.552744 10.950435 139.999985
25 139.999985 0.000000 0.000119 -1.588094 -2.995728 10.601999 139.999985
[Rope4_Seg05]
24 139.999802 -0.000060 -0.000119 0.113560 0.853785 0.193745 139.999802
25 139.999802 -0.000060 -0.000119 0.109843 0.702144 0.167194 139.999802
[Rope4_Seg06]
24 139.999924 0.000000 0.000060 0.326024 1.211711 -1.132485 139.999924
25 139.999924 0.000000 0.000060 0.305513 0.943896 -0.940498 139.999924
[Rope4_Seg07]
24 139.999802 0.000000 0.000000 0.126520 0.431579 0.323609 139.999802
25 139.999802 0.000000 0.000000 0.106594 0.327727 0.375367 139.999802
[Rope4_Seg08]
24 139.999924 0.000000 0.000119 -1.459266 0.303642 0.215422 139.999924
25 139.999924 0.000000 0.000119 -1.471712 0.217631 0.256064 139.999924
[Rope4_Seg09]
24 90.185791 0.000060 0.000060 -135.617828 2.228885 0.850567 90.185791
25 90.185791 0.000060 0.000060 -135.617828 2.228885 0.850567 90.185791
[L_rear_hand01]
24 101.696655 -8.392275 -7.654577 -34.454281 -18.946800 151.655121 102.329041
25 101.696655 -8.392275 -7.654577 -34.454281 -18.946800 151.655121 102.329041
[L_rear_hand02]
24 102.726799 -1.568258 5.773216 83.407906 30.330435 172.796509 102.900848
25 102.726799 -1.568258 5.773216 83.407906 30.330435 172.796509 102.900848
[L_rear_hand03]
24 104.552910 9.721220 -10.420293 -161.379868 -16.473232 -150.512238 105.519653
25 104.552910 9.721220 -10.420293 -161.379868 -16.473232 -150.512238 105.519653
